<?xml version="1.0" encoding="utf-8"?>
<!-- Generator: Adobe Illustrator 20.1.0, SVG Export Plug-In . SVG Version: 6.00 Build 0)  -->
<svg version="1.1" id="Layer_1" xmlns="http://www.w3.org/2000/svg" xmlns:xlink="http://www.w3.org/1999/xlink" x="0px" y="0px"
	 viewBox="0 0 800 800" style="enable-background:new 0 0 800 800;" xml:space="preserve">
<style type="text/css">
	.st0{fill:#7C1316;}
	.st1{fill:#FFFFFF;}
</style>
<circle class="st0" cx="400" cy="400" r="377.2"/>
<g>
	<g>
		<path class="st1" d="M236.5,407.3c1.7,11.5,4.8,20,9.6,25.9c8.7,10.4,23.6,15.5,44.8,15.5c12.7,0,23.1-1.4,31-4.2
			c14.9-5.3,22.5-14.9,22.5-29.3c0-8.4-3.7-14.6-11-19.4c-7.3-4.5-18.9-8.4-34.9-11.8l-27.3-5.9c-26.7-5.9-45.3-12.4-55.2-19.4
			c-16.9-11.5-25.3-29.8-25.3-54.6c0-22.5,8.2-41.4,24.8-56.3s41.1-22.2,73.2-22.2c26.7,0,49.8,7,68.7,21.1
			c18.9,14.1,29,34.3,29.8,61.4h-50.7c-0.8-15.2-7.6-25.9-20.3-32.4c-8.4-4.2-18.9-6.2-31.2-6.2c-13.8,0-25.1,2.8-33.2,8.2
			c-8.2,5.3-12.4,13.2-12.4,22.8c0,9,4.2,15.8,12.4,20.3c5.3,3.1,16.3,6.5,33.5,10.4l44.2,10.4c19.4,4.5,33.8,10.7,43.6,18.3
			c14.9,11.8,22.5,29,22.5,51.5c0,23.1-9,42.2-26.7,57.4c-17.7,15.2-42.8,22.8-75.4,22.8c-33.2,0-59.1-7.6-78.3-22.5
			c-19.4-14.6-29-35.5-29-61.7H236.5z"/>
		<path class="st1" d="M605.9,277.8H466.5v53.5H587V375H466.5v64.8h139.4V485H415V233.4h190.9V277.8z"/>
	</g>
	<g>
		<path class="st1" d="M529,531.2h-42.8v16.4h37V561h-37v19.9H529v13.9h-58.6v-77.2H529V531.2z"/>
		<g>
			<path class="st1" d="M205.7,570.9c0.5,3.5,1.5,6.1,2.9,7.9c2.7,3.2,7.3,4.8,13.7,4.8c3.9,0,7.1-0.4,9.5-1.3
				c4.6-1.6,6.9-4.6,6.9-9c0-2.6-1.1-4.5-3.4-6c-2.2-1.4-5.8-2.6-10.7-3.6l-8.4-1.8c-8.2-1.8-13.9-3.8-16.9-6
				c-5.2-3.5-7.8-9.2-7.8-16.8c0-6.9,2.5-12.7,7.6-17.3c5.1-4.6,12.6-6.8,22.5-6.8c8.2,0,15.3,2.2,21.1,6.5
				c5.8,4.3,8.9,10.5,9.2,18.8h-15.6c-0.3-4.7-2.3-7.9-6.2-9.9c-2.6-1.3-5.8-1.9-9.6-1.9c-4.2,0-7.7,0.9-10.2,2.5s-3.8,4.1-3.8,7
				c0,2.8,1.3,4.8,3.8,6.2c1.6,1,5,2,10.3,3.2l13.6,3.2c6,1.4,10.4,3.3,13.4,5.6c4.6,3.6,6.9,8.9,6.9,15.8c0,7.1-2.8,13-8.2,17.6
				c-5.4,4.7-13.1,7-23.2,7c-10.2,0-18.1-2.3-24-6.9c-5.8-4.6-8.7-10.9-8.7-18.9H205.7L205.7,570.9z"/>
			<path class="st1" d="M260.1,517.5h16.4v47.4c0,5.3,0.6,9.2,1.9,11.7c2,4.3,6.2,6.5,12.7,6.5s10.7-2.2,12.7-6.5
				c1.3-2.4,1.9-6.3,1.9-11.7v-47.4h16.4V565c0,8.2-1.3,14.6-3.8,19.2c-4.8,8.4-13.8,12.6-27.1,12.6c-13.4,0-22.5-4.2-27.2-12.6
				c-2.5-4.6-3.8-11-3.8-19.2L260.1,517.5L260.1,517.5z"/>
			<path class="st1" d="M389.7,525.7c2.3,3.3,3.5,7.3,3.5,11.8c0,4.8-1.2,8.6-3.5,11.4c-1.3,1.6-3.3,3.1-5.9,4.4
				c4,1.5,6.9,3.7,8.9,6.8s3,6.9,3,11.3c0,4.6-1.1,8.7-3.5,12.4c-1.5,2.4-3.3,4.4-5.4,6c-2.5,1.9-5.4,3.2-8.7,3.9
				c-3.4,0.7-7,1-10.9,1h-34.8v-77.2h37.2C379,517.6,385.7,520.4,389.7,525.7z M347.7,530.9v17h18.8c3.4,0,6-0.6,8.2-1.9
				c2.1-1.3,3.1-3.5,3.1-6.8c0-3.6-1.4-6-4.1-7.2c-2.4-0.8-5.4-1.2-9.2-1.2L347.7,530.9L347.7,530.9z M347.7,560.7v20.6h18.8
				c3.4,0,6-0.4,7.9-1.4c3.4-1.6,5.1-4.9,5.1-9.7c0-4-1.6-6.7-4.9-8.3c-1.8-0.9-4.4-1.3-7.7-1.3L347.7,560.7L347.7,560.7z"/>
			<path class="st1" d="M415.6,570.9c0.5,3.5,1.5,6.1,2.9,7.9c2.7,3.2,7.3,4.8,13.7,4.8c3.9,0,7.1-0.4,9.5-1.3
				c4.6-1.6,6.9-4.6,6.9-9c0-2.6-1.1-4.5-3.4-6c-2.2-1.4-5.8-2.6-10.7-3.6l-8.4-1.8c-8.2-1.8-13.9-3.8-16.9-6
				c-5.2-3.5-7.8-9.2-7.8-16.8c0-6.9,2.5-12.7,7.6-17.3c5.1-4.6,12.6-6.8,22.5-6.8c8.2,0,15.3,2.2,21.1,6.5
				c5.8,4.3,8.9,10.5,9.2,18.8h-15.6c-0.3-4.7-2.3-7.9-6.2-9.9c-2.6-1.3-5.8-1.9-9.6-1.9c-4.2,0-7.7,0.9-10.2,2.5s-3.8,4.1-3.8,7
				c0,2.8,1.3,4.8,3.8,6.2c1.6,1,5,2,10.3,3.2l13.6,3.2c6,1.4,10.4,3.3,13.4,5.6c4.6,3.6,6.9,8.9,6.9,15.8c0,7.1-2.8,13-8.2,17.6
				c-5.4,4.7-13.1,7-23.2,7c-10.2,0-18.1-2.3-24-6.9c-5.8-4.6-8.7-10.9-8.7-18.9H415.6L415.6,570.9z"/>
			<path class="st1" d="M549.6,594.8h-16.8l27.6-77.2h18.2l27.3,77.2h-17.5l-19.1-59.6L549.6,594.8"/>
		</g>
	</g>
</g>
</svg>
