<?xml version="1.0" encoding="utf-8"?>
<!-- Generator: Adobe Illustrator 20.1.0, SVG Export Plug-In . SVG Version: 6.00 Build 0)  -->
<svg version="1.1" id="Layer_1" xmlns="http://www.w3.org/2000/svg" xmlns:xlink="http://www.w3.org/1999/xlink" x="0px" y="0px"
	 viewBox="0 0 800 124" style="enable-background:new 0 0 800 124;" xml:space="preserve">
<style type="text/css">
	.st0{fill:none;stroke:#000000;stroke-width:2;stroke-miterlimit:10;}
</style>
<g>
	<path d="M16.9,8.8h4.5v30.2h16.1v3.8H16.9V8.8z"/>
	<path d="M38.1,25.9c0-10.4,7.7-18,18.1-18c10.4,0,18,7.5,18,18c0,10.4-7.7,18-18,18C45.8,43.9,38.1,36.3,38.1,25.9z M69.6,25.9
		c0-8.3-5.6-14.2-13.3-14.2c-7.8,0-13.4,5.9-13.4,14.2c0,8.2,5.6,14.2,13.4,14.2C64,40,69.6,34.1,69.6,25.9z"/>
	<path d="M78.1,25.9c0-11,8.3-17.8,18.1-17.8c4.3,0,9,1.4,11.8,3.6v4.7c-2.8-2.5-6.5-4.5-11.8-4.5c-7.8,0-13.4,5.4-13.4,14
		c0,8.5,5.6,14,13.4,14c5.3,0,9-2,11.8-4.5V40c-2.8,2.2-7.5,3.6-11.8,3.6C86.4,43.6,78.1,36.9,78.1,25.9z"/>
	<path d="M125.2,8.8h3l14.6,34h-4.7l-4.1-9.5h-15l-4.1,9.5h-4.4L125.2,8.8z M132.5,29.7l-6-14l-6,14H132.5z"/>
	<path d="M146.6,8.8h4.5v30.2h16.1v3.8h-20.6V8.8z"/>
	<path d="M182.2,8.8h10.6c13.2,0,19,7.7,19,17s-5.7,17-19,17h-10.6V8.8z M192.8,38.9c11.1,0,14.2-6.2,14.2-13.1
		c0-6.8-3.1-13.1-14.2-13.1h-6.1v26.1H192.8z"/>
	<path d="M217.2,8.8h20.6v3.8h-16.1V23H235v3.8h-13.2v12.3h16.1v3.8h-20.6V8.8z"/>
	<path d="M243.9,8.8h10.6c13.2,0,19,7.7,19,17s-5.7,17-19,17h-10.6V8.8z M254.5,38.9c11.1,0,14.2-6.2,14.2-13.1
		c0-6.8-3.1-13.1-14.2-13.1h-6.1v26.1H254.5z"/>
	<path d="M278.9,8.8h4.5v34h-4.5V8.8z"/>
	<path d="M288.9,25.9c0-11,8.3-17.8,18.1-17.8c4.3,0,9,1.4,11.8,3.6v4.7c-2.8-2.5-6.5-4.5-11.8-4.5c-7.8,0-13.4,5.4-13.4,14
		c0,8.5,5.6,14,13.4,14c5.3,0,9-2,11.8-4.5V40c-2.8,2.2-7.5,3.6-11.8,3.6C297.2,43.6,288.9,36.9,288.9,25.9z"/>
	<path d="M336,8.8h3l14.6,34h-4.7l-4.1-9.5h-15l-4.1,9.5h-4.4L336,8.8z M343.3,29.7l-6-14l-6,14H343.3z"/>
	<path d="M361.8,12.6h-12.1V8.8h28.7v3.8h-12.1v30.2h-4.5V12.6z"/>
	<path d="M382.4,8.8h4.5v34h-4.5V8.8z"/>
	<path d="M392.5,25.9c0-10.4,7.7-18,18.1-18c10.4,0,18,7.5,18,18c0,10.4-7.7,18-18,18C400.1,43.9,392.5,36.3,392.5,25.9z
		 M423.9,25.9c0-8.3-5.6-14.2-13.3-14.2c-7.8,0-13.4,5.9-13.4,14.2c0,8.2,5.6,14.2,13.4,14.2C418.4,40,423.9,34.1,423.9,25.9z"/>
	<path d="M434.1,8.8h2.6L457,34.2V8.8h4.1v34h-2.6l-20.3-25.4v25.4h-4.1V8.8z"/>
	<path d="M185.4,93.9c0-11,8.3-17.8,18.1-17.8c4.3,0,9,1.4,11.8,3.6v4.7c-2.8-2.5-6.5-4.5-11.8-4.5c-7.8,0-13.4,5.4-13.4,14
		c0,8.5,5.6,14.2,13.4,14.2c3.3,0,6.4-0.7,8.7-2v-7.7h-7v-3.8h11.5v13.7c-1.9,0.8-6.9,3.6-13.2,3.6
		C193.7,111.9,185.4,105,185.4,93.9z"/>
	<path d="M223.9,76.9h4.5v30.2h16.1v3.8h-20.6V76.9z"/>
	<path d="M245.2,93.9c0-10.4,7.7-18,18.1-18c10.4,0,18,7.5,18,18c0,10.4-7.7,18-18,18C252.9,111.9,245.2,104.4,245.2,93.9z
		 M276.6,93.9c0-8.3-5.6-14.2-13.3-14.2c-7.8,0-13.4,5.9-13.4,14.2c0,8.2,5.6,14.2,13.4,14.2C271.1,108.1,276.6,102.2,276.6,93.9z"
		/>
	<path d="M286.8,76.9h11.2c6.9,0,9.9,4,9.9,8.9c0,2.6-1.6,5.2-3.6,6.7c3.3,1.4,5.4,4.9,5.4,8.5c0,5.5-3.3,10-11.1,10h-11.8V76.9z
		 M298.1,91c4.3,0,5.6-2.6,5.6-5.2s-1.3-5.1-5.6-5.1h-6.7V91H298.1z M298.6,107.2c5.1,0,6.6-3.1,6.6-6.2c0-3.1-1.5-6.2-6.6-6.2h-7.3
		v12.4H298.6z"/>
	<path d="M326.3,76.9h3l14.6,34h-4.7l-4.1-9.5h-15l-4.1,9.5h-4.4L326.3,76.9z M333.6,97.8l-6-14l-6,14H333.6z"/>
	<path d="M347.7,76.9h4.5v30.2h16.1v3.8h-20.6V76.9z"/>
	<path d="M381.5,107.6l1-4.2c2,2.2,5.4,4.7,10.3,4.7c4,0,7.1-2.3,7.1-6c0-3.5-1.7-5.4-8.1-7.1c-6.4-1.7-9.5-5.2-9.5-9.9
		c0-4.8,4-8.9,11-8.9c3.9,0,7.4,1.6,9.2,3.1l-1,3.6c-2.3-1.6-5.4-3-8.2-3c-4.3,0-6.7,2-6.7,5.2c0,2.4,1.5,4.5,6.9,5.9
		c7.3,1.9,10.7,5.1,10.7,10.7c0,6.6-5.6,10-11.4,10C387.3,111.7,383.4,109.5,381.5,107.6z"/>
	<path d="M417.6,80.7h-12.1v-3.8h28.7v3.8h-12.1V111h-4.5V80.7z"/>
	<path d="M445,76.9h3l14.6,34H458l-4.1-9.5h-15l-4.1,9.5h-4.4L445,76.9z M452.4,97.8l-6-14l-6,14H452.4z"/>
	<path d="M466.5,76.9h2.6l20.3,25.4V76.9h4.1v34h-2.6l-20.3-25.4V111h-4.1V76.9z"/>
	<path d="M500.6,76.9h10.6c13.2,0,19,7.7,19,17s-5.7,17-19,17h-10.6V76.9z M511.2,107c11.1,0,14.2-6.2,14.2-13.1
		c0-6.8-3.1-13.1-14.2-13.1h-6.1V107H511.2z"/>
	<path d="M544.7,76.9h3l14.6,34h-4.7l-4.1-9.5h-15l-4.1,9.5h-4.4L544.7,76.9z M552,97.8l-6-14l-6,14H552z"/>
	<path d="M580.1,105l-4.5-8.1h-4.9V111h-4.5v-34h11.2c7.8,0,11.1,4.5,11.1,10c0,5.1-2.9,9-8.2,9.7l4.1,6.9c2,3.5,3.9,4.5,6.4,4.5
		c0.6,0,1.2-0.1,1.9-0.2v3.2c-1.1,0.3-2.1,0.4-3.1,0.4C585.7,111.4,582.6,109.4,580.1,105z M577.4,93.1c5.1,0,6.6-3.1,6.6-6.2
		s-1.5-6.2-6.6-6.2h-6.7v12.4H577.4z"/>
	<path d="M596.8,76.9h10.6c13.2,0,19,7.7,19,17s-5.7,17-19,17h-10.6V76.9z M607.4,107c11.1,0,14.2-6.2,14.2-13.1
		c0-6.8-3.1-13.1-14.2-13.1h-6.1V107H607.4z"/>
	<path d="M630.1,107.6l1-4.2c2,2.2,5.4,4.7,10.3,4.7c4,0,7.2-2.3,7.2-6c0-3.5-1.7-5.4-8.1-7.1c-6.4-1.7-9.5-5.2-9.5-9.9
		c0-4.8,4-8.9,11-8.9c3.9,0,7.4,1.6,9.2,3.1l-1,3.6c-2.3-1.6-5.4-3-8.2-3c-4.3,0-6.7,2-6.7,5.2c0,2.4,1.5,4.5,6.9,5.9
		c7.3,1.9,10.7,5.1,10.7,10.7c0,6.6-5.6,10-11.4,10C635.8,111.7,631.9,109.5,630.1,107.6z"/>
</g>
<g>
	<circle cx="726.6" cy="23.6" r="11.9"/>
	<circle cx="766.3" cy="47.3" r="11.9"/>
	<circle cx="726.6" cy="63.7" r="11.9"/>
	<circle cx="754.5" cy="95.6" r="11.9"/>
	<circle cx="697.3" cy="95.6" r="11.9"/>
	<circle cx="687.7" cy="47.3" r="11.9"/>
	<line class="st0" x1="734.7" y1="60.3" x2="759.4" y2="51.1"/>
	<line class="st0" x1="731" y1="71.9" x2="751.9" y2="90.5"/>
	<line class="st0" x1="694.6" y1="52" x2="719.4" y2="61.1"/>
	<line class="st0" x1="725.9" y1="29.6" x2="725.9" y2="56"/>
	<line class="st0" x1="702.1" y1="90.5" x2="720.8" y2="71.9"/>
</g>
</svg>
