<?xml version="1.0" encoding="utf-8"?>
<!-- Generator: Adobe Illustrator 20.1.0, SVG Export Plug-In . SVG Version: 6.00 Build 0)  -->
<svg version="1.1" id="Layer_1" xmlns="http://www.w3.org/2000/svg" xmlns:xlink="http://www.w3.org/1999/xlink" x="0px" y="0px"
	 viewBox="0 0 650 124" style="enable-background:new 0 0 650 124;" xml:space="preserve">
<style type="text/css">
	.st0{font-family:'MrEavesXLSanOT-Reg';}
	.st1{font-size:55.1905px;}
	.st2{letter-spacing:154;}
	.st3{fill:#1D1D1B;}
</style>
<g>
	<text transform="matrix(1 0 0 1 13.5859 43.6201)"><tspan x="0" y="0" class="st0 st1">Safety, Quality, Trust</tspan><tspan x="0" y="66.2" class="st0 st1 st2">	</tspan><tspan x="165.6" y="66.2" class="st0 st1">That’s Our DNA</tspan></text>
</g>
<g>
	<path class="st3" d="M616.1,95.1c-0.3-0.1-0.5-0.3-0.8-0.4c-0.2-0.1-0.5-0.2-0.7-0.4c-2.9-1.5-6.1-2.9-9.3-4.3
		c-0.3-0.1-0.6-0.2-0.8-0.4c-0.1,0-0.1-0.1-0.2-0.1c-0.2-0.1-0.4-0.2-0.6-0.3c-2.9-1.3-6.6-2.9-9.8-4.6H616c-2.3,1.5-5.4,3.2-9,4.7
		c3.2,1.4,6.2,2.8,9.1,4.3c6.7-3.5,12.9-8.4,12.9-14.5c0-6.2-6.9-10.7-16.1-15.2c-0.2-0.1-0.5-0.2-0.7-0.4c-0.2-0.1-0.5-0.2-0.7-0.4
		c-1.8-0.9-3.7-1.8-5.7-2.7c-1-0.5-2.2-1-3.4-1.6c-0.2-0.1-0.5-0.2-0.8-0.4c-0.2-0.1-0.5-0.2-0.8-0.4c-2.8-1.4-5.9-2.9-8.4-4.4h20.5
		c-3.1,1.6-6.4,3.2-9,4.4c0.8,0.4,1.6,0.8,2.4,1.1c2.3,1.1,4.5,2.1,6.6,3.1c9.2-4.5,16.1-8.9,16.1-15.2c0-6.1-6.2-11-12.9-14.5
		c-0.2-0.1-0.5-0.2-0.7-0.4c-0.2-0.1-0.5-0.2-0.7-0.4c-3.5-1.7-6.9-3-9.6-4c-0.3-0.1-0.6-0.2-0.9-0.3c-0.3-0.1-0.6-0.2-0.9-0.3
		c-1.1-0.3-1.9-0.6-2.5-0.8c-4.4-1.2-7.5-2.8-9.8-4.4h24.8c-2.7,1.8-5.9,3.5-8.9,4.9c2.8,1,6.1,2.3,9.4,4c7.8-4.1,13.8-9.6,13.8-16
		l-7.5-0.2c0,0,0,0.1,0,0.1h-37.4v0.5c-0.1-0.3-0.2-0.5-0.2-0.5l-8.1-0.2c0.2,1.1,2.3,11.4,16.2,17.2c0.3,0.1,0.5,0.2,0.8,0.3
		c0.3,0.1,0.6,0.2,0.8,0.3c1.3,0.5,2.6,0.9,4.1,1.3c2.4,0.7,4.7,1.5,6.7,2.3c0.3,0.1,0.6,0.2,0.8,0.3c0.3,0.1,0.5,0.2,0.8,0.3
		c2.4,1,4.6,2.1,6.5,3.1h-16.5c2.3-1.1,4.7-2.2,6.7-3c-1.7-0.6-3.6-1.2-5.4-1.8c-1.9-0.6-3.7-1.2-5.3-1.8
		c-8.5,4.1-14.7,8.3-14.7,14.4c0,5.9,5.8,10.3,13.8,14.5c0.2,0.1,0.5,0.2,0.7,0.4c0.2,0.1,0.5,0.2,0.7,0.4c2.8,1.4,5.8,2.8,8.9,4.3
		c0,0,0.1,0,0.1,0.1c0.2,0.1,0.4,0.2,0.6,0.3c0.2,0.1,0.5,0.2,0.8,0.4c1.8,0.8,3.9,1.8,6,2.9h-14.7c1.9-1,3.8-2,5.7-2.9
		c-3.1-1.4-6.1-2.8-8.8-4.2c-8,4.2-13.8,8.6-13.8,14.5c0,6.2,6.2,10.4,14.7,14.4c0.3,0.1,0.5,0.3,0.8,0.4c0.3,0.1,0.5,0.3,0.8,0.4
		c2.1,1,4.4,2,6.7,3c1.2,0.5,2.5,1.1,3.8,1.7c0.3,0.1,0.6,0.3,0.8,0.4c0.3,0.1,0.6,0.3,0.9,0.4c2.8,1.3,5.6,2.7,8,4.1h-22.8
		c2.2-1.2,5.1-2.4,8.8-3.5c0.6-0.2,1.4-0.4,2.5-0.8c-0.9-0.4-1.8-0.8-2.6-1.1c-2.7-1.2-5.3-2.4-7.8-3.5
		c-13.9,5.7-15.5,14.8-15.6,15.9h7.5c0,0,0-0.2,0.1-0.4v0.4h37c0,0,0,0,0,0.1h7.7C629.6,103.8,623.9,99.2,616.1,95.1z M621.5,17.1
		c-0.7,1.1-1.8,2.2-3.3,3.3h-29.9c-1.4-1.3-2.3-2.4-2.8-3.3H621.5z M589.3,51.9c-2.1-1.5-3.4-2.8-3.4-3.9c0,0,0,0,0,0H621
		c-0.6,1.1-2.4,2.5-4.8,3.9H589.3z M616.5,42.1c2.1,1.5,3.6,2.8,4.2,3.9h-33.7c1.3-1.2,3.5-2.6,6-3.9H616.5z M590.4,82.8
		c-2.4-1.4-4.1-2.8-4.4-3.9h35.2c0,0.1,0.1,0.2,0.1,0.3c0,0.9-0.9,2.2-2.7,3.7H590.4z M613.5,73c2.5,1.4,4.7,2.7,6.2,3.9h-33.1
		c0.9-1.2,2.8-2.6,5.1-3.9H613.5z M585.7,108.2c0.6-0.9,1.6-1.9,3.2-3.1h28.8c1.5,1,2.7,2.1,3.4,3.1H585.7z"/>
</g>
</svg>
