<?xml version="1.0" encoding="utf-8"?>
<!-- Generator: Adobe Illustrator 20.1.0, SVG Export Plug-In . SVG Version: 6.00 Build 0)  -->
<svg version="1.1" id="Layer_1" xmlns="http://www.w3.org/2000/svg" xmlns:xlink="http://www.w3.org/1999/xlink" x="0px" y="0px"
	 viewBox="0 0 489.9 201.6" style="enable-background:new 0 0 489.9 201.6;" xml:space="preserve">
<style type="text/css">
	.st0{fill:#FFFFFF;}
</style>
<g>
	<path class="st0" d="M22.3,69.5c0.6,4.1,1.7,7.1,3.4,9.2c3.1,3.7,8.4,5.5,15.9,5.5c4.5,0,8.2-0.5,11-1.5c5.3-1.9,8-5.3,8-10.4
		c0-3-1.3-5.2-3.9-6.9c-2.6-1.6-6.7-3-12.4-4.2l-9.7-2.1c-9.5-2.1-16.1-4.4-19.6-6.9c-6-4.1-9-10.6-9-19.4c0-8,2.9-14.7,8.8-20
		s14.6-7.9,26-7.9c9.5,0,17.7,2.5,24.4,7.5c6.7,5,10.3,12.2,10.6,21.8h-18c-0.3-5.4-2.7-9.2-7.2-11.5c-3-1.5-6.7-2.2-11.1-2.2
		c-4.9,0-8.9,1-11.8,2.9c-2.9,1.9-4.4,4.7-4.4,8.1c0,3.2,1.5,5.6,4.4,7.2c1.9,1.1,5.8,2.3,11.9,3.7l15.7,3.7
		c6.9,1.6,12,3.8,15.5,6.5c5.3,4.2,8,10.3,8,18.3c0,8.2-3.2,15-9.5,20.4c-6.3,5.4-15.2,8.1-26.8,8.1c-11.8,0-21-2.7-27.8-8
		C7.8,86.2,4.4,78.8,4.4,69.5H22.3z"/>
	<path class="st0" d="M153.5,23.5H104v19h42.8v15.5H104v23h49.5v16.1H85.7V7.7h67.8V23.5z"/>
	<path class="st0" d="M22.3,166.6c0.6,4.1,1.7,7.1,3.4,9.2c3.1,3.7,8.4,5.5,15.9,5.5c4.5,0,8.2-0.5,11-1.5c5.3-1.9,8-5.3,8-10.4
		c0-3-1.3-5.2-3.9-6.9c-2.6-1.6-6.7-3-12.4-4.2l-9.7-2.1c-9.5-2.1-16.1-4.4-19.6-6.9c-6-4.1-9-10.6-9-19.4c0-8,2.9-14.7,8.8-20
		s14.6-7.9,26-7.9c9.5,0,17.7,2.5,24.4,7.5c6.7,5,10.3,12.2,10.6,21.8h-18c-0.3-5.4-2.7-9.2-7.2-11.5c-3-1.5-6.7-2.2-11.1-2.2
		c-4.9,0-8.9,1-11.8,2.9c-2.9,1.9-4.4,4.7-4.4,8.1c0,3.2,1.5,5.6,4.4,7.2c1.9,1.1,5.8,2.3,11.9,3.7l15.7,3.7
		c6.9,1.6,12,3.8,15.5,6.5c5.3,4.2,8,10.3,8,18.3c0,8.2-3.2,15-9.5,20.4c-6.3,5.4-15.2,8.1-26.8,8.1c-11.8,0-21-2.7-27.8-8
		c-6.7-5.3-10.1-12.6-10.1-21.9H22.3z"/>
	<path class="st0" d="M85.2,104.8h19v54.9c0,6.1,0.7,10.6,2.2,13.5c2.3,5,7.2,7.5,14.7,7.5c7.5,0,12.4-2.5,14.7-7.5
		c1.5-2.8,2.2-7.3,2.2-13.5v-54.9h19v55c0,9.5-1.5,16.9-4.4,22.2c-5.5,9.7-16,14.6-31.4,14.6c-15.5,0-26-4.9-31.5-14.6
		c-2.9-5.3-4.4-12.7-4.4-22.2V104.8z"/>
	<path class="st0" d="M235.2,114.3c2.7,3.8,4.1,8.4,4.1,13.7c0,5.5-1.4,9.9-4.1,13.2c-1.5,1.9-3.8,3.6-6.8,5.1
		c4.6,1.7,8,4.3,10.3,7.9c2.3,3.6,3.5,8,3.5,13.1c0,5.3-1.3,10.1-4,14.3c-1.7,2.8-3.8,5.1-6.3,7c-2.9,2.2-6.2,3.7-10.1,4.5
		c-3.9,0.8-8.1,1.2-12.6,1.2h-40.3v-89.4H212C222.9,104.9,230.6,108.1,235.2,114.3z M186.6,120.3V140h21.7c3.9,0,7-0.7,9.5-2.2
		c2.4-1.5,3.6-4.1,3.6-7.9c0-4.2-1.6-6.9-4.8-8.3c-2.8-0.9-6.3-1.4-10.6-1.4H186.6z M186.6,154.8v23.8h21.7c3.9,0,6.9-0.5,9.1-1.6
		c3.9-1.9,5.9-5.7,5.9-11.2c0-4.6-1.9-7.8-5.7-9.6c-2.1-1-5.1-1.5-8.9-1.5H186.6z"/>
	<path class="st0" d="M265.2,166.6c0.6,4.1,1.7,7.1,3.4,9.2c3.1,3.7,8.4,5.5,15.9,5.5c4.5,0,8.2-0.5,11-1.5c5.3-1.9,8-5.3,8-10.4
		c0-3-1.3-5.2-3.9-6.9c-2.6-1.6-6.7-3-12.4-4.2l-9.7-2.1c-9.5-2.1-16.1-4.4-19.6-6.9c-6-4.1-9-10.6-9-19.4c0-8,2.9-14.7,8.8-20
		c5.9-5.3,14.6-7.9,26-7.9c9.5,0,17.7,2.5,24.4,7.5c6.7,5,10.3,12.2,10.6,21.8h-18c-0.3-5.4-2.7-9.2-7.2-11.5
		c-3-1.5-6.7-2.2-11.1-2.2c-4.9,0-8.9,1-11.8,2.9c-2.9,1.9-4.4,4.7-4.4,8.1c0,3.2,1.5,5.6,4.4,7.2c1.9,1.1,5.8,2.3,11.9,3.7
		l15.7,3.7c6.9,1.6,12,3.8,15.5,6.5c5.3,4.2,8,10.3,8,18.3c0,8.2-3.2,15-9.5,20.4c-6.3,5.4-15.2,8.1-26.8,8.1c-11.8,0-21-2.7-27.8-8
		c-6.7-5.3-10.1-12.6-10.1-21.9H265.2z"/>
	<path class="st0" d="M396.5,120.6H347v19h42.8v15.5H347v23h49.5v16.1h-67.8v-89.4h67.8V120.6z"/>
	<path class="st0" d="M420.3,194.2h-19.5l31.9-89.4h21.1l31.6,89.4h-20.3l-22.1-69L420.3,194.2"/>
</g>
</svg>
